<?xml version="1.0" standalone="no"?>
<!DOCTYPE svg PUBLIC "-//W3C//DTD SVG 20010904//EN"
 "http://www.w3.org/TR/2001/REC-SVG-20010904/DTD/svg10.dtd">
<svg version="1.0" xmlns="http://www.w3.org/2000/svg"
 width="1422.000000pt" height="768.000000pt" viewBox="0 0 1422.000000 768.000000"
 preserveAspectRatio="xMidYMid meet">

<g transform="translate(0.000000,768.000000) scale(0.100000,-0.100000)"
fill="#000000" stroke="none">
<path d="M9121 7188 c15 -73 27 -134 26 -135 -1 -1 -85 9 -187 23 -707 94
-1167 125 -1845 125 -544 0 -870 -16 -1355 -67 -1258 -132 -2390 -440 -3310
-900 -1511 -756 -2212 -1818 -1904 -2887 35 -123 96 -284 122 -325 8 -12 13
-25 10 -27 -11 -12 -244 285 -377 480 -89 130 -86 133 -50 -44 64 -318 245
-684 493 -996 116 -145 418 -443 586 -576 707 -563 1646 -997 2775 -1284 1276
-324 2686 -435 4090 -320 2167 178 4069 904 5071 1937 482 498 731 1022 751
1583 9 253 -21 459 -102 703 -413 1241 -2042 2288 -4275 2747 -170 35 -507 95
-533 95 -10 0 -7 -32 14 -132z m-1794 -630 c40 -22 69 -63 78 -108 4 -24 -17
-153 -69 -421 -42 -213 -76 -393 -76 -402 0 -12 54 -15 378 -20 271 -4 412
-10 502 -22 484 -65 748 -247 840 -577 11 -40 20 -83 20 -95 0 -13 3 -23 8
-23 4 0 34 136 66 303 32 166 64 314 72 328 21 42 70 77 117 84 23 4 429 5
902 2 918 -4 943 -5 1145 -57 489 -125 791 -437 865 -894 19 -116 19 -351 0
-484 -59 -412 -214 -738 -484 -1016 -158 -162 -283 -257 -451 -341 -302 -152
-574 -195 -1230 -195 l-326 0 -38 -197 c-144 -734 -132 -682 -167 -720 -19
-18 -50 -38 -71 -44 -24 -6 -196 -9 -462 -7 -413 3 -425 4 -453 24 -43 32 -73
82 -73 123 0 20 36 216 79 436 43 220 77 401 76 403 -1 1 -14 -2 -29 -8 -17
-6 -185 -10 -450 -10 -418 0 -422 0 -466 23 -51 26 -80 73 -80 130 0 21 72
411 161 865 88 455 163 861 166 902 6 98 -6 119 -77 144 -49 18 -90 20 -387
24 l-332 4 -6 -24 c-3 -12 -89 -453 -190 -978 -102 -525 -190 -969 -196 -987
-13 -41 -69 -90 -111 -98 -18 -3 -223 -5 -455 -3 -480 3 -455 -1 -502 92 l-24
48 65 337 c36 185 65 337 64 338 -1 2 -25 -30 -53 -70 -212 -303 -529 -543
-853 -645 -238 -75 -395 -92 -908 -99 -420 -6 -422 -6 -427 -27 -3 -11 -41
-205 -85 -429 -49 -253 -86 -420 -97 -440 -10 -17 -34 -40 -53 -52 -34 -19
-53 -20 -460 -23 -465 -3 -486 -1 -530 55 -50 64 -68 -46 319 1946 244 1256
365 1858 378 1879 10 18 34 41 53 53 34 20 51 20 815 23 822 3 1016 -3 1202
-39 475 -91 788 -351 917 -760 l32 -99 168 873 c93 479 176 887 186 906 20 42
55 70 101 81 19 5 221 8 449 7 373 -2 418 -4 447 -19z"/>
<path d="M6116 4617 c-193 -991 -352 -1810 -354 -1819 -4 -17 20 -18 390 -18
l394 0 199 1023 c109 562 200 1030 203 1040 4 16 31 17 389 17 484 0 560 -12
641 -104 85 -97 78 -161 -102 -1086 -81 -415 -154 -785 -161 -823 l-13 -67
401 2 400 3 168 864 c92 475 173 907 180 959 14 108 7 260 -16 342 -72 268
-273 411 -667 476 -84 14 -193 18 -600 21 -376 4 -498 8 -498 17 0 6 41 220
90 475 50 256 90 468 90 473 0 4 -177 8 -392 8 l-393 0 -349 -1803z"/>
<path d="M3085 5438 c-2 -7 -160 -816 -350 -1798 -191 -982 -349 -1795 -352
-1808 l-5 -22 398 2 398 3 86 446 c48 245 90 461 94 481 l7 36 507 5 c531 4
597 9 796 56 304 73 575 245 793 505 179 213 288 442 350 735 24 113 27 148
27 336 1 167 -3 224 -16 277 -90 351 -328 592 -685 693 -211 60 -181 58 -1151
62 -726 3 -893 2 -897 -9z m1378 -568 c328 -27 489 -126 536 -330 27 -116 7
-359 -44 -535 -112 -385 -298 -557 -685 -630 -64 -13 -173 -18 -442 -22 -345
-5 -357 -5 -352 13 2 11 67 345 144 744 77 399 142 735 145 748 l5 22 284 0
c156 0 340 -5 409 -10z"/>
<path d="M3895 4708 c-2 -7 -54 -272 -115 -588 -61 -316 -113 -583 -116 -592
-5 -17 10 -18 223 -18 407 0 597 50 738 194 136 138 229 413 229 676 1 107 -2
132 -21 172 -38 83 -136 133 -308 157 -113 16 -624 15 -630 -1z"/>
<path d="M9280 5444 c0 -3 -157 -816 -350 -1805 -192 -990 -350 -1807 -350
-1815 0 -12 58 -14 395 -14 l394 0 7 37 c4 21 46 238 93 483 l87 445 509 6
c412 5 530 9 615 23 387 63 611 175 876 440 276 276 415 566 469 979 43 330
-17 611 -173 817 -172 227 -434 357 -807 400 -95 10 -1765 15 -1765 4z m1505
-588 c244 -47 345 -119 401 -286 25 -74 25 -287 1 -412 -38 -191 -101 -360
-174 -467 -49 -71 -143 -160 -213 -201 -36 -22 -106 -53 -155 -69 -161 -54
-245 -63 -627 -68 -192 -3 -348 -2 -348 2 0 17 292 1511 297 1519 10 15 727 0
818 -18z"/>
<path d="M10090 4715 c0 -3 -52 -272 -115 -598 -63 -325 -115 -595 -115 -599
0 -15 448 -9 553 7 193 29 318 86 416 190 129 138 221 413 222 661 0 165 -29
228 -131 279 -99 50 -171 59 -512 63 -175 2 -318 1 -318 -3z"/>
</g>
</svg>
